<svg width="24" height="24" viewBox="0 0 24 24" fill="none" xmlns="http://www.w3.org/2000/svg">
<path d="M2.78701 2.28021C2.88156 2.25229 2.98069 2.24329 3.07872 2.25372C3.17676 2.26415 3.27177 2.2938 3.35834 2.34098C3.4449 2.38816 3.52131 2.45195 3.5832 2.52869C3.64509 2.60543 3.69124 2.69362 3.71901 2.78821L4.26901 4.65021H18.924C20.764 4.65021 22.169 6.36721 21.639 8.16021L19.984 13.7602C19.632 14.9542 18.513 15.7502 17.269 15.7502H8.11301C6.86901 15.7502 5.75101 14.9542 5.39801 13.7602L2.28101 3.21321C2.22455 3.02252 2.24614 2.81721 2.34103 2.64244C2.43592 2.46766 2.59634 2.33673 2.78701 2.28021ZM6.25001 19.5002C6.25001 18.9035 6.48707 18.3312 6.90902 17.9092C7.33098 17.4873 7.90328 17.2502 8.50001 17.2502C9.09675 17.2502 9.66905 17.4873 10.091 17.9092C10.513 18.3312 10.75 18.9035 10.75 19.5002C10.75 20.0969 10.513 20.6692 10.091 21.0912C9.66905 21.5132 9.09675 21.7502 8.50001 21.7502C7.90328 21.7502 7.33098 21.5132 6.90902 21.0912C6.48707 20.6692 6.25001 20.0969 6.25001 19.5002ZM14.25 19.5002C14.25 19.2047 14.3082 18.9122 14.4213 18.6392C14.5344 18.3662 14.7001 18.1182 14.909 17.9092C15.118 17.7003 15.366 17.5346 15.639 17.4215C15.912 17.3084 16.2045 17.2502 16.5 17.2502C16.7955 17.2502 17.0881 17.3084 17.3611 17.4215C17.634 17.5346 17.8821 17.7003 18.091 17.9092C18.2999 18.1182 18.4657 18.3662 18.5787 18.6392C18.6918 18.9122 18.75 19.2047 18.75 19.5002C18.75 20.0969 18.513 20.6692 18.091 21.0912C17.669 21.5132 17.0968 21.7502 16.5 21.7502C15.9033 21.7502 15.331 21.5132 14.909 21.0912C14.4871 20.6692 14.25 20.0969 14.25 19.5002Z" fill="#B3B3B3"/>
</svg> 